<svg width="1525" height="210" viewBox="0 0 1525 210" fill="none" xmlns="http://www.w3.org/2000/svg">
<path fill-rule="evenodd" clip-rule="evenodd" d="M111.478 210C149.742 210 177.762 195.237 194.935 177.762C210.603 161.793 222.956 136.786 222.956 104.849C222.956 72.9125 210.603 48.2066 194.935 32.2382C177.762 14.7633 149.742 0 111.478 0C73.2138 0 45.1937 14.7633 28.0201 32.2382C12.3529 48.2066 0 72.6112 0 104.849C0 137.088 12.3529 161.793 28.0201 177.762C45.1937 195.237 73.2138 210 111.478 210ZM73.8164 105.151C73.8164 94.3042 78.0344 82.5538 85.2654 75.0215C90.0861 69.8996 98.5222 64.7776 111.478 64.7776C123.529 64.7776 132.267 69.5983 137.69 75.0215C144.921 81.9512 149.139 92.4964 149.139 105.151C149.139 117.805 144.319 128.35 137.69 134.978C131.664 141.004 122.626 145.222 111.478 145.222C100.33 145.222 91.2913 141.004 85.2654 134.978C78.0344 127.747 73.8164 116.6 73.8164 105.151Z" fill="black"/>
<path d="M314.736 123.351L281.462 5H205.6L283.261 205H345.63L422.991 5H347.129L314.736 123.351Z" fill="black"/>
<path fill-rule="evenodd" clip-rule="evenodd" d="M738.914 25.6897C720.623 7.3988 698.734 5 677.745 5H587.49V205H658.265V140.832L659.464 140.232C660.064 142.431 660.663 143.564 661.263 144.697C661.563 145.263 661.863 145.83 662.163 146.529L690.948 205H774.606L729.629 137.534C727.533 134.274 723.864 129.037 722.339 126.859L722.338 126.858L722.327 126.842C721.895 126.226 721.639 125.86 721.643 125.86C721.657 125.853 721.675 125.846 721.695 125.842C721.701 125.841 721.706 125.84 721.712 125.84L721.717 125.84L721.723 125.84C732.278 123.131 741.163 117.484 746.71 110.547C752.408 103.651 757.805 92.5562 757.805 74.8651C757.805 51.1769 749.109 35.8846 738.914 25.6897ZM681.943 89.5577C677.445 93.4558 670.848 94.0555 666.65 94.0555H658.255V59.8726H670.848C676.845 59.8726 680.743 62.5712 683.142 65.2699C685.841 68.2684 687.04 72.7661 687.04 77.2639C687.04 83.5607 684.342 87.4588 681.943 89.5577Z" fill="black"/>
<path d="M826.851 205L749.19 5H825.052L858.345 123.351L890.719 5H966.581L889.22 205H826.851Z" fill="black"/>
<path d="M1311.1 119.353L1285.05 5H1209.79L1279.95 205H1341.72L1366.54 96.1544L1390.6 205H1453.87L1524.33 5H1448.77L1422.86 119.353L1394.8 5H1339.03L1311.1 119.353Z" fill="black"/>
<path d="M434.79 205V5H569.723V59.8726H507.354V78.4633H564.025V130.937H507.354V150.127H571.522V205H434.79Z" fill="black"/>
<path d="M978.39 5V205H1050.95V5H978.39Z" fill="black"/>
<path d="M1065.99 205V5H1200.92V59.8726H1138.55V78.4633H1195.23V130.937H1138.55V150.127H1202.72V205H1065.99Z" fill="black"/>
</svg>
